<?xml version="1.0" standalone="no"?>
<!DOCTYPE svg PUBLIC "-//W3C//DTD SVG 20010904//EN"
 "http://www.w3.org/TR/2001/REC-SVG-20010904/DTD/svg10.dtd">
<svg version="1.0" xmlns="http://www.w3.org/2000/svg"
 width="57.000000pt" height="57.000000pt" viewBox="0 0 57.000000 57.000000"
 preserveAspectRatio="xMidYMid meet">

<g transform="translate(0.000000,57.000000) scale(0.100000,-0.100000)"
fill="#000000" stroke="none">
<path d="M177 493 c-4 -3 -7 -96 -7 -205 0 -169 2 -198 15 -199 8 0 53 0 100
0 47 0 92 0 100 0 13 1 15 31 15 206 l0 205 -108 0 c-60 0 -112 -3 -115 -7z
m213 -76 l0 -73 -37 2 -38 3 35 -7 35 -7 3 -117 3 -118 -106 0 -106 0 3 118 3
117 59 2 c32 2 62 5 65 9 3 3 -10 5 -29 4 -19 -1 -50 -2 -67 -1 l-33 1 0 70 0
70 105 0 105 0 0 -73z"/>
<path d="M203 415 c0 -22 2 -30 4 -17 2 12 2 30 0 40 -3 9 -5 -1 -4 -23z"/>
<path d="M203 255 c0 -27 2 -38 4 -22 2 15 2 37 0 50 -2 12 -4 0 -4 -28z"/>
</g>
</svg>
